<?xml version="1.0" standalone="no"?>
<!DOCTYPE svg PUBLIC "-//W3C//DTD SVG 20010904//EN"
 "http://www.w3.org/TR/2001/REC-SVG-20010904/DTD/svg10.dtd">
<svg version="1.0" xmlns="http://www.w3.org/2000/svg"
 width="512.000000pt" height="512.000000pt" viewBox="0 0 512.000000 512.000000"
 preserveAspectRatio="xMidYMid meet">

<g transform="translate(0.000000,512.000000) scale(0.100000,-0.100000)"
fill="#000000" stroke="none">
<path d="M303 5102 c-106 -37 -201 -141 -223 -245 -8 -38 -10 -680 -8 -2327
l3 -2275 27 -56 c35 -70 97 -132 168 -167 l55 -27 1765 0 1765 0 57 28 c72 35
130 93 165 165 l28 57 5 1010 5 1010 439 760 c242 418 451 785 465 815 22 46
26 69 26 145 0 80 -3 97 -32 157 -39 82 -100 145 -179 184 -54 26 -68 29 -164
29 -96 0 -110 -3 -165 -29 -92 -46 -137 -102 -270 -333 l-120 -210 -5 536 -5
536 -28 57 c-35 72 -93 130 -165 165 l-57 28 -1750 2 c-1659 2 -1753 2 -1802
-15z m3535 -202 c18 -11 41 -34 52 -52 19 -32 20 -52 19 -723 l0 -690 -413
-715 -414 -715 -762 -5 -762 -5 -29 -33 c-40 -45 -39 -84 5 -128 l34 -34 696
0 c383 0 696 -2 696 -4 0 -2 -22 -42 -49 -88 l-49 -83 -52 -388 c-57 -425 -57
-432 1 -462 38 -20 68 -19 104 4 17 10 160 119 319 242 l288 224 192 333 191
332 3 -801 c2 -749 1 -804 -15 -832 -10 -16 -31 -39 -46 -51 l-28 -21 -1717
-3 c-1619 -2 -1719 -1 -1752 15 -19 10 -45 33 -57 52 l-23 34 0 2256 c0 2233
0 2256 20 2289 11 18 34 41 52 52 33 20 54 20 1748 20 1694 0 1715 0 1748 -20z
m910 -744 c63 -33 102 -96 102 -164 0 -36 -56 -162 -71 -162 -7 0 -298 165
-306 174 -5 5 37 77 61 105 52 59 150 81 214 47z m-224 -414 c82 -48 149 -91
148 -97 -2 -11 -1250 -2175 -1262 -2188 -4 -5 -76 31 -159 79 -116 67 -150 91
-146 103 11 27 1260 2190 1265 2190 3 0 72 -39 154 -87z m-1358 -2388 c52 -31
93 -58 91 -61 -12 -12 -262 -202 -263 -200 -3 3 37 301 42 316 5 17 15 13 130
-55z"/>
<path d="M898 4651 c-27 -24 -33 -36 -33 -71 0 -35 6 -47 33 -71 26 -24 41
-29 82 -29 l50 0 0 -286 c0 -176 4 -293 10 -305 13 -24 61 -49 94 -49 14 0 40
13 58 29 l33 29 3 291 3 291 40 0 c46 0 94 22 109 49 13 25 13 77 0 102 -23
42 -58 49 -259 49 l-191 0 -32 -29z"/>
<path d="M1619 4653 c-66 -34 -105 -87 -119 -162 -13 -70 -13 -392 0 -462 14
-75 53 -128 119 -161 49 -25 65 -28 158 -28 142 0 183 23 183 100 0 75 -43
100 -168 100 -101 0 -102 1 -102 75 l0 43 91 4 c85 3 92 5 115 31 33 38 33 96
0 134 -23 26 -30 28 -115 31 l-91 4 0 43 c0 74 1 75 102 75 125 0 168 25 168
100 0 77 -41 100 -183 100 -93 0 -109 -3 -158 -27z"/>
<path d="M2310 4671 c-79 -24 -148 -91 -174 -169 -54 -157 55 -323 221 -339
66 -6 93 -25 93 -63 0 -50 -24 -60 -149 -60 l-113 0 -34 -34 c-46 -46 -46 -86
1 -133 l35 -35 137 4 c159 4 193 16 260 92 85 97 85 235 0 332 -49 56 -99 82
-178 93 -85 11 -115 55 -69 101 17 17 33 20 103 20 94 0 121 12 143 66 12 29
12 39 0 68 -23 56 -48 66 -156 65 -52 0 -106 -4 -120 -8z"/>
<path d="M2838 4664 c-34 -18 -48 -43 -48 -84 0 -62 45 -100 119 -100 l40 0 3
-291 3 -291 33 -29 c18 -16 44 -29 58 -29 33 0 81 25 94 49 6 12 10 129 10
305 l0 286 50 0 c41 0 56 5 82 29 27 24 33 36 33 71 0 35 -6 47 -33 71 l-32
29 -193 0 c-150 -1 -198 -4 -219 -16z"/>
<path d="M747 3420 c-39 -31 -47 -76 -47 -280 0 -204 8 -249 47 -280 26 -20
36 -21 266 -18 l239 3 24 28 c24 28 24 29 24 267 0 238 0 239 -24 267 l-24 28
-239 3 c-230 3 -240 2 -266 -18z m353 -280 l0 -100 -100 0 -100 0 0 100 0 100
100 0 100 0 0 -100z"/>
<path d="M1534 3006 c-46 -46 -46 -86 0 -132 l34 -34 701 0 701 0 31 28 c26
24 32 36 32 72 0 36 -6 48 -32 72 l-31 28 -701 0 -701 0 -34 -34z"/>
<path d="M3294 3030 c-32 -13 -54 -50 -54 -92 0 -106 144 -133 185 -35 35 84
-46 162 -131 127z"/>
<path d="M747 2380 c-39 -31 -47 -76 -47 -280 0 -204 8 -249 47 -280 26 -20
36 -21 266 -18 l239 3 24 28 c24 28 24 29 24 267 0 238 0 239 -24 267 l-24 28
-239 3 c-230 3 -240 2 -266 -18z m353 -280 l0 -100 -100 0 -100 0 0 100 0 100
100 0 100 0 0 -100z"/>
<path d="M747 1340 c-39 -31 -47 -76 -47 -280 0 -204 8 -249 47 -280 26 -20
36 -21 266 -18 l239 3 24 28 c24 28 24 29 24 267 0 238 0 239 -24 267 l-24 28
-239 3 c-230 3 -240 2 -266 -18z m353 -280 l0 -100 -100 0 -100 0 0 100 0 100
100 0 100 0 0 -100z"/>
<path d="M1534 926 c-46 -46 -46 -86 0 -132 l34 -34 456 0 c489 0 495 1 522
51 27 52 8 115 -41 137 -19 9 -150 12 -481 12 l-456 0 -34 -34z"/>
</g>
</svg>
