<?xml version="1.0" standalone="no"?>
<!DOCTYPE svg PUBLIC "-//W3C//DTD SVG 20010904//EN"
 "http://www.w3.org/TR/2001/REC-SVG-20010904/DTD/svg10.dtd">
<svg version="1.0" xmlns="http://www.w3.org/2000/svg"
 width="512.000000pt" height="512.000000pt" viewBox="0 0 512.000000 512.000000"
 preserveAspectRatio="xMidYMid meet">

<g transform="translate(0.000000,512.000000) scale(0.100000,-0.100000)"
fill="#000000" stroke="none">
<path d="M2358 4840 c-129 -22 -77 26 -1225 -1123 -993 -993 -1064 -1066
-1092 -1127 -54 -114 -51 -234 6 -341 17 -31 288 -309 861 -881 924 -922 871
-875 1013 -886 81 -6 164 17 234 63 27 19 523 508 1101 1087 991 994 1052
1057 1080 1118 l29 65 0 865 c0 969 4 913 -73 1015 -39 52 -121 114 -182 136
-28 11 -207 14 -870 15 -459 1 -856 -2 -882 -6z m1093 -772 c55 -23 108 -76
140 -138 18 -34 23 -61 23 -115 0 -299 -411 -385 -535 -111 -25 55 -25 166 0
222 66 145 222 205 372 142z"/>
<path d="M4740 3567 c0 -898 0 -907 -21 -964 -20 -55 -68 -105 -1086 -1124
l-1064 -1066 40 -36 c115 -104 276 -130 418 -67 39 17 229 201 1036 1008 696
695 995 1000 1012 1032 46 90 46 105 43 995 l-3 840 -31 65 c-17 36 -51 85
-75 109 -53 53 -147 99 -218 108 l-51 6 0 -906z"/>
</g>
</svg>
