<?xml version="1.0" standalone="no"?>
<!DOCTYPE svg PUBLIC "-//W3C//DTD SVG 20010904//EN"
 "http://www.w3.org/TR/2001/REC-SVG-20010904/DTD/svg10.dtd">
<svg version="1.0" xmlns="http://www.w3.org/2000/svg"
 width="512.000000pt" height="512.000000pt" viewBox="0 0 512.000000 512.000000"
 preserveAspectRatio="xMidYMid meet">

<g transform="translate(0.000000,512.000000) scale(0.100000,-0.100000)"
fill="#000000" stroke="none">
<path d="M769 4596 c-102 -27 -181 -95 -228 -196 l-26 -55 0 -1445 0 -1445 27
-57 c51 -109 149 -181 270 -199 76 -10 1628 -12 1628 -1 0 4 -75 83 -168 175
l-167 167 -628 0 -627 0 2 1363 3 1362 1535 0 1535 0 3 -382 2 -383 171 0 170
0 -3 418 c-3 408 -4 418 -26 474 -31 75 -101 150 -177 185 l-60 28 -1595 2
c-1243 1 -1605 -1 -1641 -11z"/>
<path d="M1197 3923 c-4 -3 -7 -62 -7 -130 l0 -123 1195 0 1195 0 0 130 0 130
-1188 0 c-654 0 -1192 -3 -1195 -7z"/>
<path d="M1880 3285 l0 -125 765 0 765 0 0 125 0 125 -765 0 -765 0 0 -125z"/>
<path d="M1218 3263 l-57 -58 487 -607 486 -606 118 110 c65 61 118 115 118
122 0 11 -1079 1096 -1090 1096 -3 0 -31 -26 -62 -57z"/>
<path d="M3954 3221 c-239 -68 -398 -312 -363 -556 59 -415 548 -590 853 -304
75 70 130 167 151 266 20 92 19 136 -5 229 -46 179 -188 322 -365 369 -77 20
-194 18 -271 -4z m209 -335 c73 -30 117 -121 96 -198 -14 -54 -75 -115 -124
-124 -72 -13 -149 20 -185 78 -24 39 -27 126 -6 166 41 79 136 113 219 78z"/>
<path d="M2390 2775 l0 -125 425 0 425 0 0 125 0 125 -425 0 -425 0 0 -125z"/>
<path d="M2437 1922 l-117 -117 355 -355 354 -354 273 182 273 182 5 -473 5
-472 170 0 170 0 3 513 2 512 168 -2 167 -3 3 -513 2 -512 170 0 170 0 0 685
0 685 -510 0 -510 0 -255 -170 c-140 -93 -258 -170 -262 -170 -5 0 -121 113
-258 250 -137 138 -252 250 -255 250 -3 0 -58 -53 -123 -118z"/>
</g>
</svg>
