<?xml version="1.0" standalone="no"?>
<!DOCTYPE svg PUBLIC "-//W3C//DTD SVG 20010904//EN"
 "http://www.w3.org/TR/2001/REC-SVG-20010904/DTD/svg10.dtd">
<svg version="1.0" xmlns="http://www.w3.org/2000/svg"
 width="512.000000pt" height="512.000000pt" viewBox="0 0 512.000000 512.000000"
 preserveAspectRatio="xMidYMid meet">

<g transform="translate(0.000000,512.000000) scale(0.100000,-0.100000)"
fill="#000000" stroke="none">
<path d="M1612 5079 c-24 -12 -74 -53 -112 -92 l-69 -70 -88 41 c-167 77 -333
106 -459 79 -100 -21 -169 -59 -242 -134 l-63 -64 -59 12 c-96 19 -225 8 -288
-25 -70 -35 -124 -92 -162 -166 -51 -101 -64 -174 -64 -365 0 -180 6 -237 56
-487 30 -150 31 -158 14 -177 -51 -56 -70 -187 -40 -274 21 -63 93 -140 158
-171 l53 -25 5 -103 c9 -174 71 -319 187 -436 32 -33 79 -72 105 -87 25 -15
46 -29 46 -31 0 -2 -20 -29 -44 -59 -49 -60 -116 -169 -146 -240 -39 -90 -19
-145 52 -145 42 0 55 14 96 103 39 85 110 191 160 240 l38 37 107 -8 c59 -5
110 -11 113 -14 3 -3 -15 -57 -40 -119 -49 -119 -52 -138 -35 -170 22 -42 50
-41 219 1 88 22 162 40 165 40 3 0 4 -143 3 -317 l-3 -318 -272 -3 c-150 -1
-273 1 -273 5 0 4 12 50 27 102 24 85 25 96 12 120 -20 36 -63 50 -97 31 -34
-19 -74 -133 -98 -276 -9 -55 -18 -109 -20 -121 -4 -22 -9 -23 -90 -23 l-85 0
5 47 c3 27 8 86 11 133 4 47 15 137 26 200 19 112 19 115 1 140 -35 46 -105
39 -127 -13 -20 -49 -44 -216 -59 -424 -8 -103 -19 -204 -25 -223 -6 -19 -11
-69 -11 -111 0 -105 26 -153 103 -193 51 -26 65 -29 151 -28 l94 1 6 -77 c11
-121 34 -258 62 -370 l26 -102 -42 -46 c-49 -54 -79 -116 -86 -182 -5 -38 -2
-52 16 -75 l21 -27 355 0 c341 0 355 1 374 20 18 18 20 33 20 168 0 81 -5 176
-11 212 -7 36 -12 133 -12 215 0 161 15 257 53 342 l22 48 20 -45 c53 -123 71
-335 44 -537 -9 -67 -16 -179 -16 -250 0 -189 -37 -173 398 -173 346 0 352 0
373 21 19 19 21 30 16 80 -6 73 -36 136 -88 188 l-40 40 25 93 c71 264 93 594
61 938 -8 85 -17 170 -21 188 l-6 32 974 0 975 0 21 23 c27 29 28 67 3 98
l-19 24 -995 3 -994 2 -29 77 c-16 43 -30 81 -32 84 -2 4 90 7 205 7 223 0
340 11 470 43 l82 20 33 -23 c18 -13 34 -23 35 -23 1 -1 -4 -23 -13 -50 -22
-76 5 -125 70 -125 38 0 64 32 83 100 16 59 17 60 52 60 92 0 167 48 196 125
13 32 16 66 14 127 -4 94 -24 136 -84 177 l-32 22 208 727 c115 400 209 743
209 763 0 56 -53 91 -104 68 -18 -8 -32 -28 -44 -63 -11 -28 -111 -374 -223
-770 l-204 -718 -105 5 c-83 4 -150 16 -325 61 -121 30 -252 65 -292 77 l-71
22 63 58 c129 121 191 255 208 450 l10 117 37 11 c54 16 125 83 157 148 72
148 0 341 -151 403 l-52 22 -13 176 c-7 98 -15 204 -17 237 l-5 60 73 88 c86
102 170 233 203 314 l24 58 1049 0 1049 0 49 -30 c31 -20 58 -47 74 -75 l25
-45 3 -1298 c1 -889 -1 -1311 -8 -1338 -6 -22 -25 -55 -42 -75 -59 -67 -65
-68 -356 -74 -262 -5 -264 -5 -283 -29 -25 -30 -24 -76 2 -102 20 -20 29 -20
302 -17 l282 3 63 34 c74 40 124 93 161 171 l26 55 0 1350 0 1350 -32 66 c-39
79 -102 140 -181 177 l-57 27 -1057 3 -1058 2 -14 33 c-17 42 -66 83 -116 98
-52 16 -130 -1 -193 -41 l-45 -28 -6 43 c-9 56 -41 104 -91 133 -35 20 -50 22
-120 19 -91 -4 -157 -32 -225 -93 -36 -33 -40 -34 -46 -18 -14 38 -57 86 -90
100 -49 21 -122 17 -172 -7z m122 -145 c10 -25 7 -122 -6 -190 -14 -76 -4
-107 40 -122 46 -16 70 4 127 103 91 157 170 225 263 225 36 0 42 -3 48 -25 9
-35 -2 -97 -31 -180 -31 -86 -31 -112 -3 -142 40 -43 64 -32 183 85 149 145
225 178 225 98 0 -100 -121 -294 -297 -476 -259 -269 -450 -362 -768 -377
-205 -10 -391 28 -560 112 -49 25 -116 68 -148 95 -44 38 -67 50 -91 50 -46 0
-61 -22 -91 -125 -34 -115 -66 -174 -130 -234 -56 -53 -87 -65 -197 -75 l-67
-6 -10 37 c-21 80 -51 270 -62 398 -13 146 -4 278 26 366 20 58 78 127 122
145 47 20 151 17 225 -6 66 -21 106 -25 124 -12 6 4 28 33 49 66 110 167 296
195 561 85 40 -17 74 -34 74 -38 0 -19 -130 -146 -176 -172 -81 -46 -90 -110
-23 -148 65 -36 189 60 359 279 53 69 116 142 139 163 43 39 85 48 95 21z
m549 -927 c4 -40 9 -122 12 -182 l6 -110 -120 -72 -120 -72 -25 44 c-70 119
-229 176 -365 130 -68 -22 -152 -99 -180 -165 l-22 -50 -118 0 -118 0 -18 46
c-24 63 -101 137 -170 163 -139 52 -298 3 -372 -115 -15 -24 -32 -44 -36 -44
-12 0 -117 63 -117 70 0 4 19 20 43 36 60 43 114 111 161 208 l41 83 74 -43
c90 -52 213 -98 341 -127 130 -29 424 -31 548 -4 184 41 305 97 448 207 49 37
92 69 95 69 3 1 9 -32 12 -72z m-1272 -420 c104 -70 106 -197 6 -271 -40 -29
-134 -29 -173 0 -53 39 -69 71 -69 134 0 66 18 99 75 138 45 30 115 30 161 -1z
m838 2 c53 -30 74 -65 79 -129 3 -45 0 -61 -20 -89 -39 -58 -72 -76 -137 -76
-73 0 -121 33 -146 100 -22 56 -15 105 21 152 48 63 134 81 203 42z m-1609
-136 l0 -126 -21 19 c-44 38 -62 120 -38 167 11 21 49 67 56 67 2 0 3 -57 3
-127z m2271 80 c32 -52 23 -133 -19 -176 l-32 -32 0 127 c0 108 2 127 15 122
8 -3 24 -22 36 -41z m-2001 -59 c102 -62 109 -68 120 -110 27 -97 125 -191
222 -214 65 -16 156 -8 212 20 59 28 121 91 149 151 l22 49 117 0 117 0 21
-47 c104 -236 443 -243 559 -12 17 34 31 69 31 78 0 13 179 134 223 150 17 6
2 -511 -18 -583 -48 -181 -180 -312 -366 -363 -57 -16 -118 -18 -569 -18 -450
0 -512 2 -569 18 -166 45 -296 165 -352 323 -16 45 -23 99 -29 229 -11 203
-12 395 -4 395 3 0 55 -30 114 -66z m1603 -1070 c84 -26 256 -73 382 -104
l230 -58 0 -58 0 -59 -68 -17 c-131 -33 -260 -41 -539 -35 l-268 6 -20 -26
c-26 -33 -25 -55 4 -106 50 -86 109 -251 140 -389 l6 -28 -275 0 -275 0 0 320
c0 176 3 320 7 320 3 0 78 -19 165 -42 l159 -41 27 20 c42 31 40 71 -12 198
-51 126 -53 122 54 125 53 2 98 9 128 19 2 0 72 -20 155 -45z m-835 -31 c3
-47 14 -40 -120 -74 -24 -5 -51 -12 -61 -15 -16 -5 -16 -1 3 47 37 94 33 90
108 87 l67 -3 3 -42z m315 -20 c15 -37 26 -68 24 -69 -1 -2 -43 7 -92 20 l-90
22 -3 47 -3 47 69 0 69 0 26 -67z m1495 -135 c14 -14 16 -106 4 -126 -6 -9
-35 -12 -108 -10 l-99 3 -3 73 -3 72 99 0 c63 0 102 -4 110 -12z m-2546 -1083
l-3 -85 -83 0 c-50 0 -87 5 -94 12 -13 13 -16 97 -6 136 6 21 11 22 98 22 l91
0 -3 -85z"/>
<path d="M1090 3110 c-25 -25 -26 -76 -3 -110 82 -123 219 -176 355 -136 68
20 155 94 183 156 17 38 17 45 4 68 -31 57 -101 54 -140 -4 -33 -52 -69 -75
-121 -81 -57 -7 -121 24 -150 73 -34 57 -90 72 -128 34z"/>
<path d="M4228 4531 c-20 -16 -35 -50 -63 -138 -20 -65 -57 -183 -82 -263
l-46 -145 -24 90 c-33 123 -35 125 -188 125 -122 0 -124 0 -144 -26 -28 -35
-26 -69 4 -99 21 -22 33 -25 99 -25 62 0 76 -3 80 -17 3 -10 26 -94 51 -188
49 -181 67 -215 121 -215 51 0 64 31 179 402 l110 357 168 3 169 3 24 28 c29
34 31 67 5 98 -19 24 -22 24 -228 27 -198 3 -210 2 -235 -17z"/>
<path d="M4440 4244 c-106 -46 -167 -183 -104 -233 49 -38 103 -19 124 43 14
43 56 64 92 45 71 -37 52 -86 -125 -326 -80 -107 -97 -137 -97 -166 0 -26 7
-41 26 -56 25 -19 40 -21 199 -21 166 0 172 1 193 23 29 31 29 77 -1 105 -20
19 -35 22 -110 22 l-87 0 67 92 c123 170 149 244 119 335 -19 57 -73 115 -128
138 -47 19 -122 19 -168 -1z"/>
</g>
</svg>
